<svg width="40" height="40" viewBox="0 0 40 40" fill="none" xmlns="http://www.w3.org/2000/svg">
<rect width="40" height="40" rx="5" fill="#245EEC"/>
<path d="M23.125 23.125V25M16.875 19.375H16.8813V19.3813H16.875V19.375ZM16.875 21.25H16.8813V21.2563H16.875V21.25ZM16.875 23.125H16.8813V23.1313H16.875V23.125ZM16.875 25H16.8813V25.0063H16.875V25ZM18.9563 19.375H18.9625V19.3813H18.9563V19.375ZM18.9563 21.25H18.9625V21.2563H18.9563V21.25ZM18.9563 23.125H18.9625V23.1313H18.9563V23.125ZM18.9563 25H18.9625V25.0063H18.9563V25ZM21.0437 19.375H21.05V19.3813H21.0437V19.375ZM21.0437 21.25H21.05V21.2563H21.0437V21.25ZM21.0437 23.125H21.05V23.1313H21.0437V23.125ZM21.0437 25H21.05V25.0063H21.0437V25ZM23.125 19.375H23.1313V19.3813H23.125V19.375ZM23.125 21.25H23.1313V21.2563H23.125V21.25ZM16.875 15H23.125V16.875H16.875V15ZM20 11.875C18.4233 11.875 16.868 11.9662 15.3389 12.1437C14.4217 12.2501 13.75 13.0408 13.75 13.9642V26.25C13.75 27.2855 14.5895 28.125 15.625 28.125H24.375C25.4105 28.125 26.25 27.2855 26.25 26.25V13.9642C26.25 13.0408 25.5783 12.2501 24.6611 12.1437C23.132 11.9662 21.5767 11.875 20 11.875Z" stroke="white" stroke-width="1.5" stroke-linecap="round" stroke-linejoin="round"/>
</svg>
